D:\school\WTK\thesis\model\3dpredictsim\Results\Batchsim_tmt_linear\Pog_s1_tmt_bCst_d00_k250_ig24_act_GRF.mot
nRows=22
nColumns=19

name D:\school\WTK\thesis\model\3dpredictsim\Results\Batchsim_tmt_linear\Pog_s1_tmt_bCst_d00_k250_ig24_act_GRF.mot
datacolumns 19
datarows 22
range 0.0000000000 0.2577262840
endheader
time 	ground_force_vx	ground_force_vy	ground_force_vz	ground_force_px	ground_force_py	ground_force_pz	1_ground_force_vx	1_ground_force_vy	1_ground_force_vz	1_ground_force_px	1_ground_force_py	1_ground_force_pz	ground_torque_x	ground_torque_y	ground_torque_z	1_ground_torque_x	1_ground_torque_y	1_ground_torque_z
        0.0000000000	      -21.3303829209	       20.7311929821	       11.5738563265	        0.1820364465	        0.0000000000	        0.0531009818	       71.9043636814	      387.8079542558	       -3.6225658963	       -0.3597975507	        0.0000000000	       -0.0262728619	        0.0000000000	        0.0000000000	        0.0000000000	        0.0000000000	        0.0000000000	        0.0000000000	
        0.0122726802	      -58.9368370999	       94.6302984846	       70.7633597047	        0.1870003916	        0.0000000000	        0.0509134585	       46.4674219148	      287.5468006751	      -14.4141946799	       -0.3491438962	        0.0000000000	       -0.0223213068	        0.0000000000	        0.0000000000	        0.0000000000	        0.0000000000	        0.0000000000	        0.0000000000	
        0.0245453604	      -31.1758702835	      268.2772388355	       35.0688468157	        0.1905525527	        0.0000000000	        0.0479060046	       32.3244808546	      227.3500074567	      -19.7895992088	       -0.3396799447	        0.0000000000	       -0.0183037291	        0.0000000000	        0.0000000000	        0.0000000000	        0.0000000000	        0.0000000000	        0.0000000000	
        0.0368180406	      -39.0397792456	      480.5376256624	       -1.0208320139	        0.1939685271	        0.0000000000	        0.0474291868	       27.6601350395	      198.0351620494	      -20.0357592747	       -0.3397388465	        0.0000000000	       -0.0183183306	        0.0000000000	        0.0000000000	        0.0000000000	        0.0000000000	        0.0000000000	        0.0000000000	
        0.0490907208	      -86.1420130463	      733.4031460904	      -16.3274380509	        0.2046100046	        0.0000000000	        0.0495490088	       17.1570170676	      154.9059294909	      -21.1186562358	       -0.3398791423	        0.0000000000	       -0.0184577087	        0.0000000000	        0.0000000000	        0.0000000000	        0.0000000000	        0.0000000000	        0.0000000000	
        0.0613634010	     -123.6265741423	      901.1745529907	      -17.5824988149	        0.2126645372	        0.0000000000	        0.0512688629	        0.2292489404	       89.2791410077	      -22.1369236226	       -0.3405426833	        0.0000000000	       -0.0191888825	        0.0000000000	        0.0000000000	        0.0000000000	        0.0000000000	        0.0000000000	        0.0000000000	
        0.0736360812	     -134.0568629752	      938.0913313161	      -17.8756153158	        0.2178562919	        0.0000000000	        0.0522046631	      -10.6262683177	       14.0213760496	       -5.8881444767	       -0.3457340597	        0.0000000000	       -0.0197295393	        0.0000000000	        0.0000000000	        0.0000000000	        0.0000000000	        0.0000000000	        0.0000000000	
        0.0859087613	     -117.6181155763	      899.9608384548	      -17.9500155036	        0.2220147474	        0.0000000000	        0.0526809905	        0.9550499336	       -0.7662290891	        0.0459531582	        0.0000000000	        0.0000000000	        0.0000000000	        0.0000000000	        0.0000000000	        0.0000000000	        0.0000000000	        0.0000000000	        0.0000000000	
        0.0981814415	     -102.7740324943	      830.6925442916	      -19.1529960680	        0.2264838924	        0.0000000000	        0.0527877543	      -16.8293449985	       11.7644890162	       -0.0128080271	       -0.3235389283	        0.0000000000	       -0.0157712456	        0.0000000000	        0.0000000000	        0.0000000000	        0.0000000000	        0.0000000000	        0.0000000000	
        0.1104541217	      -92.1461038463	      774.7491025105	      -19.2792733045	        0.2320576408	        0.0000000000	        0.0525750122	      -17.8085666187	       10.8887523118	        0.6649199470	       -0.3031040880	        0.0000000000	       -0.0162607422	        0.0000000000	        0.0000000000	        0.0000000000	        0.0000000000	        0.0000000000	        0.0000000000	
        0.1227268019	      -84.7914892716	      739.4226481469	      -19.4983545629	        0.2390200357	        0.0000000000	        0.0520553734	      -14.7375702197	        8.2291622376	        0.9584018383	        0.0000000000	        0.0000000000	        0.0000000000	        0.0000000000	        0.0000000000	        0.0000000000	        0.0000000000	        0.0000000000	        0.0000000000	
        0.1349994821	      -77.4855374186	      712.2920064088	      -19.5703453178	        0.2462362299	        0.0000000000	        0.0513640974	       -9.8922240976	        5.1533009647	        0.8118307760	        0.0000000000	        0.0000000000	        0.0000000000	        0.0000000000	        0.0000000000	        0.0000000000	        0.0000000000	        0.0000000000	        0.0000000000	
        0.1472721623	      -69.9840642643	      687.5772098442	      -19.6261157790	        0.2534367491	        0.0000000000	        0.0506824961	       -6.5943372352	        3.2998295804	        0.5623931637	        0.0000000000	        0.0000000000	        0.0000000000	        0.0000000000	        0.0000000000	        0.0000000000	        0.0000000000	        0.0000000000	        0.0000000000	
        0.1595448425	      -62.6158244178	      666.0757253596	      -20.1426470736	        0.2606668412	        0.0000000000	        0.0500224674	       -4.8314086750	        2.3487939949	        0.4115668360	        0.0000000000	        0.0000000000	        0.0000000000	        0.0000000000	        0.0000000000	        0.0000000000	        0.0000000000	        0.0000000000	        0.0000000000	
        0.1718175227	      -56.0531452111	      648.6558453157	      -20.8505454332	        0.2681192784	        0.0000000000	        0.0493394036	       -3.6442934351	        1.7281917985	        0.3135874100	        0.0000000000	        0.0000000000	        0.0000000000	        0.0000000000	        0.0000000000	        0.0000000000	        0.0000000000	        0.0000000000	        0.0000000000	
        0.1840902029	      -50.4293221425	      634.7820578204	      -21.0986095305	        0.2758884291	        0.0000000000	        0.0485861237	       -2.6524025817	        1.2311458791	        0.2320981443	        0.0000000000	        0.0000000000	        0.0000000000	        0.0000000000	        0.0000000000	        0.0000000000	        0.0000000000	        0.0000000000	        0.0000000000	
        0.1963628831	      -45.7420493932	      623.5288391105	      -20.7302279915	        0.2838825665	        0.0000000000	        0.0477516237	       -1.8926815430	        0.8627207202	        0.1666328439	        0.0000000000	        0.0000000000	        0.0000000000	        0.0000000000	        0.0000000000	        0.0000000000	        0.0000000000	        0.0000000000	        0.0000000000	
        0.2086355633	      -41.6786627247	      614.6208930274	      -19.5342861157	        0.2918056996	        0.0000000000	        0.0468785988	       -1.3769098504	        0.6168381640	        0.1204220237	        0.0000000000	        0.0000000000	        0.0000000000	        0.0000000000	        0.0000000000	        0.0000000000	        0.0000000000	        0.0000000000	        0.0000000000	
        0.2209082435	      -37.5808142016	      606.9200800999	      -18.2432201666	        0.2994599796	        0.0000000000	        0.0459985416	       -1.0634381356	        0.4678961811	        0.0912364899	        0.0000000000	        0.0000000000	        0.0000000000	        0.0000000000	        0.0000000000	        0.0000000000	        0.0000000000	        0.0000000000	        0.0000000000	
        0.2331809236	      -33.7680579619	      599.5666816328	      -17.4696711075	        0.3068641969	        0.0000000000	        0.0451085608	       -0.8834782654	        0.3816740909	        0.0736388902	        0.0000000000	        0.0000000000	        0.0000000000	        0.0000000000	        0.0000000000	        0.0000000000	        0.0000000000	        0.0000000000	        0.0000000000	
        0.2454536038	      -30.2019427001	      592.5388762386	      -17.0432920076	        0.3139820887	        0.0000000000	        0.0442202836	       -0.7908490205	        0.3356079441	        0.0640114111	        0.0000000000	        0.0000000000	        0.0000000000	        0.0000000000	        0.0000000000	        0.0000000000	        0.0000000000	        0.0000000000	        0.0000000000	
        0.2577262840	      -26.6776911064	      585.4360702901	      -16.8255153286	        0.3208070443	        0.0000000000	        0.0433397326	       -0.7563384371	        0.3155137546	        0.0595426773	        0.0000000000	        0.0000000000	        0.0000000000	        0.0000000000	        0.0000000000	        0.0000000000	        0.0000000000	        0.0000000000	        0.0000000000	
